<?xml version="1.0" encoding="UTF-8"?>
<svg id="Layer_1" data-name="Layer 1" xmlns="http://www.w3.org/2000/svg" xmlns:xlink="http://www.w3.org/1999/xlink" viewBox="0 0 486.67 486">
  <defs>
    <style>
      .cls-1 {
        clip-path: url(#clippath);
      }

      .cls-2 {
        fill: none;
      }

      .cls-3 {
        fill: #ec272b;
      }
    </style>
    <clipPath id="clippath">
      <rect class="cls-2" width="486.67" height="486"/>
    </clipPath>
  </defs>
  <g class="cls-1">
    <path class="cls-3" d="M483.66,472.12c3.16,3.16,3.16,8.29,0,11.45-1.58,1.58-3.66,2.37-5.73,2.37s-4.14-.79-5.72-2.37L243.39,254.79,14.56,483.57c-1.58,1.58-3.66,2.37-5.72,2.37s-4.15-.79-5.72-2.37c-3.16-3.16-3.16-8.29,0-11.45L231.94,243.34,3.11,14.57C-.05,11.41-.05,6.29,3.11,3.13,6.28-.03,11.4-.03,14.56,3.13L243.39,231.9,472.21,3.13c3.17-3.16,8.29-3.16,11.45,0,3.16,3.16,3.16,8.29,0,11.45L254.83,243.34l228.83,228.78Z"/>
  </g>
</svg>