<?xml version="1.0" encoding="UTF-8"?>
<svg id="Layer_2" data-name="Layer 2" xmlns="http://www.w3.org/2000/svg" viewBox="0 0 1657.67 231.54">
  <defs>
    <style>
      .cls-1 {
        fill: #ec272b;
        stroke: #231f20;
        stroke-miterlimit: 10;
        stroke-width: 5px;
      }

      .cls-2 {
        fill: #231f20;
      }
    </style>
  </defs>
  <path class="cls-2" d="M100.84,173.04l-17.27-51.14H36.69l-18.22,51.14h17.74v4.5H0v-4.5H11.12L71.5,10.42h19.42l59.64,162.63h10.89v4.5H84.04v-4.5h16.8ZM61.08,54.7l-22.25,62h42.84l-20.6-62Z"/>
  <path class="cls-2" d="M172.04,64.88h57.03v21.77c2.53-7.26,6.39-13.09,11.59-17.51,5.21-4.43,13.11-6.65,23.68-6.65,24.46,0,36.69,13.18,36.69,39.54v71.24h13.27v4.27h-67v-4.27h9.71V96.36c0-9.47-.64-15.58-1.91-18.35-1.26-2.77-3.55-4.16-6.86-4.16-5.04,0-9.5,3.32-13.37,9.94-3.87,6.63-5.81,14.68-5.81,24.16v65.32h10.18v4.27h-67.21v-4.27h13.01V69.12h-13.01v-4.24Z"/>
  <path class="cls-2" d="M379.32,119.55h6.88v-18.22c0-14.98-.83-25.05-2.49-30.18-1.66-5.13-4.86-7.69-9.6-7.69-2.85,0-5.41,.75-7.69,2.25-2.29,1.5-3.43,3.55-3.43,6.15s.47,5.25,1.41,7.93h5.94c1.26,3.32,1.88,7.3,1.88,11.96s-1.98,8.66-5.91,12.06c-3.95,3.39-8.92,5.08-14.92,5.08-13.58,0-20.36-6.54-20.36-19.63,0-19.42,16.49-29.13,49.46-29.13,18.79,0,31.77,3.21,38.94,9.6,7.18,6.39,10.78,18.1,10.78,35.15v48.05c0,8.2,2.28,12.3,6.86,12.3,5.37,0,8.53-8.13,9.47-24.39l3.56,.26c-.63,13.87-3.24,23.42-7.83,28.63-4.57,5.2-12.06,7.8-22.48,7.8-18.93,0-29.82-5.84-32.66-17.51-2.06,6.01-5.14,10.43-9.24,13.27-4.1,2.83-10.1,4.24-17.98,4.24-23.36,0-35.04-9.54-35.04-28.63,0-11.2,4.46-18.9,13.37-23.08,8.91-4.19,22.6-6.28,41.06-6.28Zm-9.47,29.13c0,8.2,.43,13.49,1.31,15.86,.87,2.38,2.53,3.56,4.97,3.56s4.72-2.02,6.86-6.05c2.15-4.03,3.22-9.59,3.22-16.7v-22.01h-1.67c-9.79,0-14.68,7.18-14.68,21.54v3.79Z"/>
  <path class="cls-2" d="M460.7,177.54v-42.37h2.85c4.1,13.73,9.62,23.36,16.57,28.89,6.94,5.52,15.62,8.27,26.04,8.27,16.1,0,24.16-5.12,24.16-15.36,0-4.43-1.98-7.75-5.91-9.94-6.16-3.47-14.05-6.16-23.68-8.06-10.73-2.84-19.73-6.63-26.98-11.36-8.69-5.69-13.03-14.68-13.03-26.98s3.78-22.14,11.36-29.47c7.59-7.34,17.69-11.02,30.31-11.02,7.75,0,15.72,1.82,23.92,5.44,3,1.28,5.29,1.91,6.86,1.91s2.93-.55,4.03-1.65c1.1-1.11,2.44-3.17,4.03-6.18h2.59v36.22h-2.83c-8.06-20.52-20.53-30.78-37.4-30.78-7.42,0-12.95,1.31-16.59,3.93-3.63,2.6-5.44,5.88-5.44,9.81,0,2.36,.55,4.21,1.65,5.55,1.11,1.35,1.99,2.33,2.62,2.96s1.65,1.3,3.06,2.02c1.43,.72,2.62,1.28,3.56,1.67,.96,.39,2.42,.89,4.4,1.52,1.97,.63,3.43,1.03,4.37,1.2,10.73,2.67,18.46,4.99,23.19,6.96,4.74,1.98,9.24,4.38,13.5,7.22,8.69,6.01,13.03,15.68,13.03,29.02s-3.95,23.42-11.86,30.28c-7.89,6.86-18.7,10.29-32.43,10.29-9.79,0-19.26-2.29-28.4-6.86-1.9-1.26-3.4-1.88-4.5-1.88-3.47,0-6.87,2.92-10.18,8.74h-2.85Z"/>
  <path class="cls-2" d="M561.5,177.54v-42.37h2.85c4.1,13.73,9.62,23.36,16.57,28.89,6.94,5.52,15.62,8.27,26.04,8.27,16.1,0,24.16-5.12,24.16-15.36,0-4.43-1.98-7.75-5.91-9.94-6.16-3.47-14.05-6.16-23.68-8.06-10.73-2.84-19.73-6.63-26.98-11.36-8.69-5.69-13.03-14.68-13.03-26.98s3.78-22.14,11.36-29.47c7.59-7.34,17.69-11.02,30.31-11.02,7.75,0,15.72,1.82,23.92,5.44,3,1.28,5.29,1.91,6.86,1.91s2.93-.55,4.03-1.65c1.1-1.11,2.44-3.17,4.03-6.18h2.59v36.22h-2.83c-8.06-20.52-20.53-30.78-37.4-30.78-7.42,0-12.95,1.31-16.59,3.93-3.63,2.6-5.44,5.88-5.44,9.81,0,2.36,.55,4.21,1.65,5.55,1.11,1.35,1.99,2.33,2.62,2.96s1.65,1.3,3.06,2.02c1.43,.72,2.62,1.28,3.56,1.67,.96,.39,2.42,.89,4.4,1.52,1.97,.63,3.43,1.03,4.37,1.2,10.73,2.67,18.46,4.99,23.19,6.96,4.74,1.98,9.24,4.38,13.5,7.22,8.69,6.01,13.03,15.68,13.03,29.02s-3.95,23.42-11.86,30.28c-7.89,6.86-18.7,10.29-32.43,10.29-9.79,0-19.26-2.29-28.4-6.86-1.9-1.26-3.4-1.88-4.5-1.88-3.47,0-6.87,2.92-10.18,8.74h-2.85Z"/>
  <path class="cls-2" d="M716.73,119.55h6.88v-18.22c0-14.98-.83-25.05-2.49-30.18-1.66-5.13-4.86-7.69-9.6-7.69-2.85,0-5.41,.75-7.69,2.25-2.29,1.5-3.43,3.55-3.43,6.15s.47,5.25,1.41,7.93h5.94c1.26,3.32,1.88,7.3,1.88,11.96s-1.98,8.66-5.91,12.06c-3.95,3.39-8.92,5.08-14.92,5.08-13.58,0-20.36-6.54-20.36-19.63,0-19.42,16.49-29.13,49.46-29.13,18.79,0,31.77,3.21,38.94,9.6,7.18,6.39,10.78,18.1,10.78,35.15v48.05c0,8.2,2.28,12.3,6.86,12.3,5.37,0,8.53-8.13,9.47-24.39l3.56,.26c-.63,13.87-3.24,23.42-7.83,28.63-4.57,5.2-12.06,7.8-22.48,7.8-18.93,0-29.82-5.84-32.66-17.51-2.06,6.01-5.14,10.43-9.24,13.27-4.1,2.83-10.1,4.24-17.98,4.24-23.36,0-35.04-9.54-35.04-28.63,0-11.2,4.46-18.9,13.37-23.08,8.91-4.19,22.6-6.28,41.06-6.28Zm-9.47,29.13c0,8.2,.43,13.49,1.31,15.86,.87,2.38,2.53,3.56,4.97,3.56s4.72-2.02,6.86-6.05c2.15-4.03,3.22-9.59,3.22-16.7v-22.01h-1.67c-9.79,0-14.68,7.18-14.68,21.54v3.79Z"/>
  <path class="cls-2" d="M1070.19,119.55h6.88v-18.22c0-14.98-.83-25.05-2.49-30.18-1.66-5.13-4.86-7.69-9.6-7.69-2.85,0-5.41,.75-7.69,2.25-2.29,1.5-3.43,3.55-3.43,6.15s.47,5.25,1.41,7.93h5.94c1.26,3.32,1.88,7.3,1.88,11.96s-1.98,8.66-5.91,12.06c-3.95,3.39-8.92,5.08-14.92,5.08-13.58,0-20.36-6.54-20.36-19.63,0-19.42,16.49-29.13,49.46-29.13,18.79,0,31.77,3.21,38.94,9.6,7.18,6.39,10.78,18.1,10.78,35.15v48.05c0,8.2,2.28,12.3,6.86,12.3,5.37,0,8.53-8.13,9.47-24.39l3.56,.26c-.63,13.87-3.24,23.42-7.83,28.63-4.57,5.2-12.06,7.8-22.48,7.8-18.93,0-29.82-5.84-32.66-17.51-2.06,6.01-5.14,10.43-9.24,13.27-4.1,2.83-10.1,4.24-17.98,4.24-23.36,0-35.04-9.54-35.04-28.63,0-11.2,4.46-18.9,13.37-23.08,8.91-4.19,22.6-6.28,41.06-6.28Zm-9.47,29.13c0,8.2,.43,13.49,1.31,15.86,.87,2.38,2.53,3.56,4.97,3.56s4.72-2.02,6.86-6.05c2.15-4.03,3.22-9.59,3.22-16.7v-22.01h-1.67c-9.79,0-14.68,7.18-14.68,21.54v3.79Z"/>
  <path class="cls-2" d="M1232.34,111.52c0-16.26-.8-27.19-2.38-32.79-1.57-5.6-4.65-8.4-9.24-8.4s-8.68,2.96-12.3,8.87c-3.63,5.91-5.44,13.84-5.44,23.79v43.34c0,6.77,1.34,12.53,4.03,17.27,2.68,4.73,6.63,7.09,11.83,7.09s8.77-3.47,10.65-10.42c1.9-6.94,2.85-19.09,2.85-36.46v-12.3Zm-29.83-48.99v18.69c6.16-14.04,17.04-21.07,32.66-21.07,13.57,0,24.11,4.89,31.61,14.68,7.5,9.79,11.25,24.63,11.25,44.52s-4.07,34.55-12.2,44.02c-8.13,9.46-20.33,14.18-36.59,14.18-7.58,0-13.26-.94-17.04-2.83-3.79-1.9-6.87-4.82-9.24-8.77v61.32h30.54v4.27h-87.59v-4.27h13.03V66.77h-12.54v-4.24h56.08Z"/>
  <path class="cls-2" d="M1372.22,141.35V66.76h-13.03v-4.24h13.03c30.9-16.58,44.02-41.43,44.02-41.43V62.52h30.78v4.24h-30.78v79.8c0,7.42,.75,12.86,2.25,16.33,1.5,3.47,4.61,5.21,9.34,5.21s8.89-2.36,12.43-7.09c3.56-4.74,5.89-11.21,6.99-19.42l4.03,.47c-1.28,10.89-4.76,19.52-10.44,25.91-5.67,6.39-15.06,9.58-28.16,9.58s-23.1-2.6-30.04-7.8c-6.95-5.21-10.42-14.68-10.42-28.4Z"/>
  <path class="cls-2" d="M1510.67,119.55h6.88v-18.22c0-14.98-.83-25.05-2.49-30.18-1.66-5.13-4.86-7.69-9.6-7.69-2.85,0-5.41,.75-7.69,2.25-2.29,1.5-3.43,3.55-3.43,6.15s.47,5.25,1.41,7.93h5.94c1.26,3.32,1.88,7.3,1.88,11.96s-1.98,8.66-5.91,12.06c-3.95,3.39-8.92,5.08-14.92,5.08-13.58,0-20.36-6.54-20.36-19.63,0-19.42,16.49-29.13,49.46-29.13,18.79,0,31.77,3.21,38.94,9.6,7.18,6.39,10.78,18.1,10.78,35.15v48.05c0,8.2,2.28,12.3,6.86,12.3,5.37,0,8.53-8.13,9.47-24.39l3.56,.26c-.63,13.87-3.24,23.42-7.83,28.63-4.57,5.2-12.06,7.8-22.48,7.8-18.93,0-29.82-5.84-32.66-17.51-2.06,6.01-5.14,10.43-9.24,13.27-4.1,2.83-10.1,4.24-17.98,4.24-23.36,0-35.04-9.54-35.04-28.63,0-11.2,4.46-18.9,13.37-23.08,8.91-4.19,22.6-6.28,41.06-6.28Zm-9.47,29.13c0,8.2,.43,13.49,1.31,15.86,.87,2.38,2.53,3.56,4.97,3.56s4.72-2.02,6.86-6.05c2.15-4.03,3.22-9.59,3.22-16.7v-22.01h-1.67c-9.79,0-14.68,7.18-14.68,21.54v3.79Z"/>
  <path class="cls-2" d="M1586.4,0h57.99V173.28h13.27v4.27h-70.32v-4.27h13.03V4.27h-13.98V0Z"/>
  <path class="cls-2" d="M1282.98,62.36h57.99v110.82h13.27v4.36h-70.32v-4.36h13.03V66.7h-13.98v-4.33Z"/>
  <circle class="cls-1" cx="1318.61" cy="31.23" r="23.1"/>
  <path d="M949.3,11.02c9.05,0,16.74,1.28,23.08,3.85,6.34,2.56,12.52,6.18,18.56,10.86,1.51,1.35,2.94,2.03,4.3,2.03,3.02,0,4.98-4.52,5.88-13.57h5.2c-.6,10.71-.91,29.56-.91,56.56h-5.2c-1.05-12.07-3.02-21.57-5.88-28.51-2.87-6.94-7.84-12.74-14.93-17.42-7.09-4.53-14.11-6.79-21.05-6.79-15.69,0-26.7,7.54-33.04,22.63-6.33,15.08-9.5,33.11-9.5,54.08s3.17,38.99,9.5,54.08c6.34,15.08,17.35,22.62,33.04,22.62,6.94,0,13.95-2.26,21.05-6.79,4.68-3.16,11.14-9.36,16.84-16.58,2.04-2.59,3.74-5.43,5.06-8.46,2.49-5.7,5.2-13.69,6.01-24.07h3.51c0,28.21-18.25,61.99-61.73,61.99-20.87,0-31.98-3.24-44.8-9.73-12.82-6.49-22.78-15.87-29.86-28.16-7.09-12.29-10.63-26.96-10.63-44.01s3.62-31.3,10.86-44.12c7.24-12.82,17.35-22.78,30.32-29.87,12.97-7.09,27.75-10.63,44.35-10.63Z"/>
</svg>