<?xml version="1.0" encoding="UTF-8"?>
<svg id="Layer_7" data-name="Layer 7" xmlns="http://www.w3.org/2000/svg" viewBox="0 0 1492.85 242.98">
  <defs>
    <style>
      .cls-1 {
        fill: #010101;
      }
    </style>
  </defs>
  <path class="cls-1" d="M119.57,23.35l62.79,155.52h-38.08l-11.5-31.1h-59.19l-11.5,31.1H24L86.78,23.35h32.79Zm1.15,93.31l-17.35-45.25h-.38l-17.33,45.25h35.06Z"/>
  <path class="cls-1" d="M188.37,178.87V82.16h33.38v10.19h.38c8.67-8.68,17.9-13.02,27.71-13.02,4.78,0,9.52,.64,14.23,1.9,4.71,1.25,9.23,3.2,13.56,5.83,4.34,2.64,7.86,6.39,10.56,11.23,2.71,4.83,4.06,10.45,4.06,16.85v63.73h-33.38v-54.67c0-5.03-1.6-9.42-4.81-13.19-3.2-3.78-7.37-5.67-12.52-5.67s-9.58,1.95-13.67,5.85c-4.08,3.89-6.13,8.22-6.13,13v54.67h-33.38Z"/>
  <path class="cls-1" d="M319.55,166.91c-9.04-9.88-13.56-21.97-13.56-36.29s4.52-26.46,13.56-36.4c9.05-9.93,20.56-14.9,34.52-14.9,12.82,0,23.38,4.02,31.67,12.06v-9.23h33.38v96.71h-33v-10.94h-.38c-8.29,9.18-18.85,13.77-31.67,13.77-13.96,0-25.47-4.93-34.52-14.79Zm28.38-52.69c-4.33,4.27-6.5,9.73-6.5,16.4s2.07,12.08,6.23,16.29c4.15,4.21,9.61,6.31,16.4,6.31s11.92-2.13,16.13-6.4c4.21-4.28,6.31-9.69,6.31-16.23s-2.17-12.11-6.5-16.38c-4.33-4.28-9.65-6.42-15.94-6.42s-11.78,2.14-16.13,6.42Z"/>
  <path class="cls-1" d="M483.76,79.33c5.53,0,10.99,.64,16.4,1.9,5.4,1.25,9.42,2.51,12.06,3.77l3.96,1.88-10.94,21.88c-7.53-4.03-14.69-6.04-21.48-6.04-3.78,0-6.45,.41-8.02,1.23-1.57,.82-2.35,2.36-2.35,4.63,0,.5,.06,1,.19,1.5s.38,.97,.75,1.42c.39,.45,.73,.83,1.04,1.15,.32,.31,.85,.65,1.6,1.02s1.34,.66,1.79,.85c.44,.18,1.17,.47,2.17,.85,1.01,.38,1.77,.66,2.27,.85,.5,.18,1.34,.46,2.54,.83,1.19,.38,2.1,.63,2.73,.75,3.9,1.14,7.3,2.41,10.19,3.79,2.89,1.38,5.93,3.26,9.13,5.65,3.21,2.39,5.69,5.41,7.46,9.04,1.76,3.64,2.65,7.79,2.65,12.44,0,22-15.27,33-45.81,33-6.92,0-13.49-1.07-19.71-3.21-6.22-2.14-10.72-4.28-13.48-6.42l-4.15-3.4,13.58-22.81c1,.89,2.31,1.93,3.94,3.13,1.64,1.2,4.59,2.83,8.88,4.9,4.28,2.07,7.98,3.1,11.13,3.1,6.92,0,10.38-2.32,10.38-6.96,0-2.14-.89-3.8-2.65-5-1.77-1.19-4.75-2.54-8.96-4.04-4.21-1.51-7.51-2.9-9.9-4.17-6.03-3.14-10.81-6.69-14.33-10.65-3.52-3.96-5.27-9.21-5.27-15.75,0-9.8,3.8-17.44,11.4-22.9,7.61-5.47,17.89-8.21,30.83-8.21Z"/>
  <path class="cls-1" d="M576.5,79.33c5.53,0,10.99,.64,16.4,1.9,5.4,1.25,9.42,2.51,12.06,3.77l3.96,1.88-10.94,21.88c-7.53-4.03-14.69-6.04-21.48-6.04-3.78,0-6.45,.41-8.02,1.23-1.57,.82-2.35,2.36-2.35,4.63,0,.5,.06,1,.19,1.5s.38,.97,.75,1.42c.39,.45,.73,.83,1.04,1.15,.32,.31,.85,.65,1.6,1.02s1.34,.66,1.79,.85c.44,.18,1.17,.47,2.17,.85,1.01,.38,1.77,.66,2.27,.85,.5,.18,1.34,.46,2.54,.83,1.19,.38,2.1,.63,2.73,.75,3.9,1.14,7.3,2.41,10.19,3.79,2.89,1.38,5.93,3.26,9.13,5.65,3.21,2.39,5.69,5.41,7.46,9.04,1.76,3.64,2.65,7.79,2.65,12.44,0,22-15.27,33-45.81,33-6.92,0-13.49-1.07-19.71-3.21-6.22-2.14-10.72-4.28-13.48-6.42l-4.15-3.4,13.58-22.81c1,.89,2.31,1.93,3.94,3.13,1.64,1.2,4.59,2.83,8.88,4.9,4.28,2.07,7.98,3.1,11.13,3.1,6.92,0,10.38-2.32,10.38-6.96,0-2.14-.89-3.8-2.65-5-1.77-1.19-4.75-2.54-8.96-4.04-4.21-1.51-7.51-2.9-9.9-4.17-6.03-3.14-10.81-6.69-14.33-10.65-3.52-3.96-5.27-9.21-5.27-15.75,0-9.8,3.8-17.44,11.4-22.9,7.61-5.47,17.89-8.21,30.83-8.21Z"/>
  <path class="cls-1" d="M633.78,166.91c-9.04-9.88-13.56-21.97-13.56-36.29s4.52-26.46,13.56-36.4c9.05-9.93,20.56-14.9,34.52-14.9,12.82,0,23.38,4.02,31.67,12.06v-9.23h33.38v96.71h-33v-10.94h-.38c-8.29,9.18-18.85,13.77-31.67,13.77-13.96,0-25.47-4.93-34.52-14.79Zm28.38-52.69c-4.33,4.27-6.5,9.73-6.5,16.4s2.07,12.08,6.23,16.29c4.15,4.21,9.61,6.31,16.4,6.31s11.92-2.13,16.13-6.4c4.21-4.28,6.31-9.69,6.31-16.23s-2.17-12.11-6.5-16.38c-4.33-4.28-9.65-6.42-15.94-6.42s-11.78,2.14-16.13,6.42Z"/>
  <path class="cls-1" d="M845.16,146.83c5.42,0,10.67-.82,15.75-2.46,5.09-1.64,8.83-3.21,11.21-4.71l3.58-2.46,15.08,30.17c-.5,.38-1.2,.89-2.08,1.52-.88,.63-2.92,1.79-6.13,3.48-3.2,1.7-6.62,3.18-10.27,4.44-3.64,1.25-8.42,2.38-14.33,3.38-5.91,1.01-11.99,1.52-18.27,1.52-14.46,0-28.16-3.55-41.1-10.65-12.95-7.11-23.38-16.89-31.29-29.33-7.92-12.44-11.88-25.89-11.88-40.33,0-10.93,2.32-21.42,6.98-31.48,4.65-10.05,10.84-18.67,18.56-25.83,7.73-7.17,16.76-12.88,27.06-17.15,10.3-4.28,20.86-6.42,31.67-6.42,10.05,0,19.32,1.2,27.81,3.58,8.48,2.39,14.48,4.78,18,7.17l5.27,3.58-15.08,30.15c-.88-.75-2.2-1.66-3.96-2.73-1.75-1.07-5.27-2.48-10.54-4.23-5.28-1.76-10.63-2.65-16.04-2.65-8.54,0-16.21,1.39-23,4.15-6.78,2.77-12.15,6.41-16.1,10.94-3.96,4.53-6.98,9.41-9.06,14.63-2.07,5.21-3.1,10.52-3.1,15.92,0,11.81,4.43,22.4,13.29,31.77,8.86,9.36,21.52,14.04,37.98,14.04Z"/>
  <path class="cls-1" d="M910.93,166.91c-9.04-9.88-13.56-21.97-13.56-36.29s4.52-26.46,13.56-36.4c9.05-9.93,20.56-14.9,34.52-14.9,12.82,0,23.38,4.02,31.67,12.06v-9.23h33.38v96.71h-33v-10.94h-.38c-8.29,9.18-18.85,13.77-31.67,13.77-13.96,0-25.47-4.93-34.52-14.79Zm28.38-52.69c-4.33,4.27-6.5,9.73-6.5,16.4s2.07,12.08,6.23,16.29c4.15,4.21,9.61,6.31,16.4,6.31s11.92-2.13,16.13-6.4c4.21-4.28,6.31-9.69,6.31-16.23s-2.17-12.11-6.5-16.38c-4.33-4.28-9.65-6.42-15.94-6.42s-11.78,2.14-16.13,6.42Z"/>
  <path class="cls-1" d="M1132.61,94.14c9.05,9.86,13.58,21.96,13.58,36.29s-4.53,26.45-13.58,36.38c-9.04,9.93-20.54,14.9-34.48,14.9-12.82,0-23.38-4.02-31.67-12.06v58.25h-33.38V82.16h33v10.94h.38c8.29-9.18,18.84-13.77,31.67-13.77,13.94,0,25.44,4.94,34.48,14.81Zm-28.35,52.69c4.33-4.28,6.5-9.74,6.5-16.4s-2.08-12.1-6.23-16.31c-4.14-4.21-9.6-6.31-16.4-6.31s-11.91,2.14-16.13,6.42c-4.21,4.27-6.31,9.66-6.31,16.19s2.17,12.14,6.5,16.42c4.34,4.27,9.66,6.4,15.94,6.4s11.79-2.13,16.13-6.4Z"/>
  <path class="cls-1" d="M1161.84,82.16v96.71h33.38V82.16h-33.38Z"/>
  <path class="cls-1" d="M1224.41,82.16V46.16h33.38v36h20.35v25.44h-20.35v30.73c0,8.93,2.51,13.4,7.54,13.4,1.26,0,2.58-.25,3.96-.75,1.39-.5,2.46-1.01,3.21-1.52l1.13-.75,8.29,26.96c-7.16,4.03-15.32,6.04-24.5,6.04-6.28,0-11.68-1.1-16.21-3.29-4.53-2.21-7.96-5.17-10.29-8.88-2.32-3.71-3.99-7.6-5-11.69-1-4.08-1.5-8.45-1.5-13.1v-37.15h-13.94v-25.44h13.94Z"/>
  <path class="cls-1" d="M1299.81,166.91c-9.04-9.88-13.56-21.97-13.56-36.29s4.52-26.46,13.56-36.4c9.05-9.93,20.56-14.9,34.52-14.9,12.82,0,23.38,4.02,31.67,12.06v-9.23h33.38v96.71h-33v-10.94h-.38c-8.29,9.18-18.85,13.77-31.67,13.77-13.96,0-25.47-4.93-34.52-14.79Zm28.38-52.69c-4.33,4.27-6.5,9.73-6.5,16.4s2.07,12.08,6.23,16.29c4.15,4.21,9.61,6.31,16.4,6.31s11.92-2.13,16.13-6.4c4.21-4.28,6.31-9.69,6.31-16.23s-2.17-12.11-6.5-16.38c-4.33-4.28-9.65-6.42-15.94-6.42s-11.78,2.14-16.13,6.42Z"/>
  <path class="cls-1" d="M1421.97,178.87V16.74h33.38V178.87h-33.38Z"/>
</svg>