<svg xmlns="http://www.w3.org/2000/svg" xmlns:xlink="http://www.w3.org/1999/xlink" width="500" zoomAndPan="magnify" viewBox="0 0 375 374.999991" height="500" preserveAspectRatio="xMidYMid meet" version="1.0"><defs><g/></defs><g fill="#ffffff" fill-opacity="1"><g transform="translate(11.917972, 238.48642)"><g><path d="M 59.28125 1.96875 C 48.90625 1.96875 39.582031 -0.226562 31.3125 -4.625 C 23.050781 -9.019531 16.5625 -15.09375 11.84375 -22.84375 C 7.125 -30.59375 4.765625 -39.328125 4.765625 -49.046875 C 4.765625 -58.765625 7.125 -67.5 11.84375 -75.25 C 16.5625 -83.007812 23.050781 -89.082031 31.3125 -93.46875 C 39.582031 -97.863281 48.90625 -100.0625 59.28125 -100.0625 C 69.644531 -100.0625 78.960938 -97.863281 87.234375 -93.46875 C 95.503906 -89.082031 102 -83.007812 106.71875 -75.25 C 111.4375 -67.5 113.796875 -58.765625 113.796875 -49.046875 C 113.796875 -39.328125 111.4375 -30.59375 106.71875 -22.84375 C 102 -15.09375 95.503906 -9.019531 87.234375 -4.625 C 78.960938 -0.226562 69.644531 1.96875 59.28125 1.96875 Z M 59.28125 -21.015625 C 64.226562 -21.015625 68.710938 -22.179688 72.734375 -24.515625 C 76.753906 -26.859375 79.929688 -30.15625 82.265625 -34.40625 C 84.597656 -38.65625 85.765625 -43.535156 85.765625 -49.046875 C 85.765625 -54.554688 84.597656 -59.4375 82.265625 -63.6875 C 79.929688 -67.9375 76.753906 -71.226562 72.734375 -73.5625 C 68.710938 -75.90625 64.226562 -77.078125 59.28125 -77.078125 C 54.332031 -77.078125 49.847656 -75.90625 45.828125 -73.5625 C 41.804688 -71.226562 38.628906 -67.9375 36.296875 -63.6875 C 33.960938 -59.4375 32.796875 -54.554688 32.796875 -49.046875 C 32.796875 -43.535156 33.960938 -38.65625 36.296875 -34.40625 C 38.628906 -30.15625 41.804688 -26.859375 45.828125 -24.515625 C 49.847656 -22.179688 54.332031 -21.015625 59.28125 -21.015625 Z M 59.28125 -21.015625 "/></g></g></g><g fill="#ffffff" fill-opacity="1"><g transform="translate(130.470252, 238.48642)"><g><path d="M 60.96875 -3.078125 C 58.71875 -1.679688 55.976562 -0.609375 52.75 0.140625 C 49.53125 0.890625 46.101562 1.265625 42.46875 1.265625 C 32.5625 1.265625 24.941406 -1.160156 19.609375 -6.015625 C 14.285156 -10.878906 11.625 -18.125 11.625 -27.75 L 11.625 -53.25 L 0.5625 -53.25 L 0.5625 -73.15625 L 11.625 -73.15625 L 11.625 -92.90625 L 38.265625 -92.90625 L 38.265625 -73.15625 L 55.640625 -73.15625 L 55.640625 -53.25 L 38.265625 -53.25 L 38.265625 -28.03125 C 38.265625 -25.320312 38.988281 -23.195312 40.4375 -21.65625 C 41.882812 -20.113281 43.820312 -19.34375 46.25 -19.34375 C 49.332031 -19.34375 52.039062 -20.132812 54.375 -21.71875 Z M 60.96875 -3.078125 "/></g></g></g><g fill="#ffffff" fill-opacity="1"><g transform="translate(193.109576, 238.48642)"><g><path d="M 36.15625 1.265625 C 29.800781 1.265625 23.539062 0.539062 17.375 -0.90625 C 11.207031 -2.351562 6.253906 -4.25 2.515625 -6.59375 L 10.515625 -24.8125 C 13.972656 -22.65625 18.082031 -20.945312 22.84375 -19.6875 C 27.601562 -18.425781 32.320312 -17.796875 37 -17.796875 C 41.289062 -17.796875 44.347656 -18.238281 46.171875 -19.125 C 47.992188 -20.007812 48.90625 -21.296875 48.90625 -22.984375 C 48.90625 -24.660156 47.804688 -25.847656 45.609375 -26.546875 C 43.421875 -27.253906 39.941406 -27.9375 35.171875 -28.59375 C 29.097656 -29.332031 23.9375 -30.3125 19.6875 -31.53125 C 15.4375 -32.75 11.769531 -34.988281 8.6875 -38.25 C 5.601562 -41.519531 4.0625 -46.097656 4.0625 -51.984375 C 4.0625 -56.847656 5.507812 -61.171875 8.40625 -64.953125 C 11.300781 -68.734375 15.523438 -71.722656 21.078125 -73.921875 C 26.640625 -76.117188 33.300781 -77.21875 41.0625 -77.21875 C 46.570312 -77.21875 52.035156 -76.65625 57.453125 -75.53125 C 62.867188 -74.414062 67.398438 -72.828125 71.046875 -70.765625 L 63.0625 -52.6875 C 56.332031 -56.425781 49.046875 -58.296875 41.203125 -58.296875 C 36.992188 -58.296875 33.910156 -57.804688 31.953125 -56.828125 C 29.992188 -55.847656 29.015625 -54.5625 29.015625 -52.96875 C 29.015625 -51.195312 30.085938 -49.957031 32.234375 -49.25 C 34.378906 -48.550781 37.929688 -47.832031 42.890625 -47.09375 C 49.140625 -46.15625 54.320312 -45.078125 58.4375 -43.859375 C 62.550781 -42.648438 66.125 -40.429688 69.15625 -37.203125 C 72.195312 -33.984375 73.71875 -29.476562 73.71875 -23.6875 C 73.71875 -18.914062 72.269531 -14.640625 69.375 -10.859375 C 66.476562 -7.078125 62.203125 -4.109375 56.546875 -1.953125 C 50.890625 0.191406 44.09375 1.265625 36.15625 1.265625 Z M 36.15625 1.265625 "/></g></g></g><g fill="#ffffff" fill-opacity="1"><g transform="translate(269.762178, 238.48642)"><g><path d="M 46.671875 1.265625 C 38.535156 1.265625 31.195312 -0.414062 24.65625 -3.78125 C 18.125 -7.144531 13.007812 -11.816406 9.3125 -17.796875 C 5.625 -23.773438 3.78125 -30.550781 3.78125 -38.125 C 3.78125 -45.59375 5.625 -52.316406 9.3125 -58.296875 C 13.007812 -64.273438 18.101562 -68.921875 24.59375 -72.234375 C 31.082031 -75.554688 38.441406 -77.21875 46.671875 -77.21875 C 54.890625 -77.21875 62.269531 -75.554688 68.8125 -72.234375 C 75.351562 -68.921875 80.441406 -64.296875 84.078125 -58.359375 C 87.722656 -52.429688 89.546875 -45.6875 89.546875 -38.125 C 89.546875 -30.550781 87.722656 -23.773438 84.078125 -17.796875 C 80.441406 -11.816406 75.351562 -7.144531 68.8125 -3.78125 C 62.269531 -0.414062 54.890625 1.265625 46.671875 1.265625 Z M 46.671875 -19.90625 C 51.335938 -19.90625 55.164062 -21.515625 58.15625 -24.734375 C 61.144531 -27.953125 62.640625 -32.414062 62.640625 -38.125 C 62.640625 -43.726562 61.144531 -48.117188 58.15625 -51.296875 C 55.164062 -54.472656 51.335938 -56.0625 46.671875 -56.0625 C 41.992188 -56.0625 38.160156 -54.472656 35.171875 -51.296875 C 32.179688 -48.117188 30.6875 -43.726562 30.6875 -38.125 C 30.6875 -32.414062 32.179688 -27.953125 35.171875 -24.734375 C 38.160156 -21.515625 41.992188 -19.90625 46.671875 -19.90625 Z M 46.671875 -19.90625 "/></g></g></g></svg>