<svg xmlns="http://www.w3.org/2000/svg" xmlns:xlink="http://www.w3.org/1999/xlink" width="500" zoomAndPan="magnify" viewBox="0 0 375 374.999991" height="500" preserveAspectRatio="xMidYMid meet" version="1.0"><defs><clipPath id="id1"><path d="M 5 5.269531 L 370 5.269531 L 370 369.769531 L 5 369.769531 Z M 5 5.269531 " clip-rule="nonzero"/></clipPath></defs><g clip-path="url(#id1)"><path fill="#e50044" d="M 367.746094 359.359375 C 370.113281 361.730469 370.113281 365.574219 367.746094 367.945312 C 366.558594 369.128906 365.003906 369.722656 363.449219 369.722656 C 361.898438 369.722656 360.34375 369.128906 359.15625 367.945312 L 187.539062 196.363281 L 15.921875 367.945312 C 14.734375 369.128906 13.179688 369.722656 11.628906 369.722656 C 10.074219 369.722656 8.519531 369.128906 7.335938 367.945312 C 4.964844 365.574219 4.964844 361.730469 7.335938 359.359375 L 178.953125 187.777344 L 7.335938 16.199219 C 4.964844 13.828125 4.964844 9.984375 7.335938 7.613281 C 9.707031 5.246094 13.550781 5.246094 15.921875 7.613281 L 187.539062 179.195312 L 359.15625 7.613281 C 361.53125 5.246094 365.371094 5.246094 367.746094 7.613281 C 370.113281 9.984375 370.113281 13.828125 367.746094 16.199219 L 196.125 187.777344 Z M 367.746094 359.359375 " fill-opacity="1" fill-rule="nonzero"/></g></svg>