<svg xmlns="http://www.w3.org/2000/svg" xmlns:xlink="http://www.w3.org/1999/xlink" width="500" zoomAndPan="magnify" viewBox="0 0 375 374.999991" height="500" preserveAspectRatio="xMidYMid meet" version="1.0"><defs><clipPath id="id1"><path d="M 12.117188 12.117188 L 363.117188 12.117188 L 363.117188 363.117188 L 12.117188 363.117188 Z M 12.117188 12.117188 " clip-rule="nonzero"/></clipPath><clipPath id="id2"><path d="M 12.117188 187.613281 C 12.117188 284.542969 90.691406 363.117188 187.617188 363.117188 C 284.546875 363.117188 363.121094 284.542969 363.121094 187.613281 C 363.121094 90.6875 284.546875 12.113281 187.617188 12.113281 C 90.691406 12.113281 12.117188 90.6875 12.117188 187.613281 " clip-rule="nonzero"/></clipPath><clipPath id="id3"><path d="M 12.117188 187.613281 C 12.117188 284.542969 90.691406 363.117188 187.617188 363.117188 C 284.546875 363.117188 363.121094 284.542969 363.121094 187.613281 C 363.121094 90.6875 284.546875 12.113281 187.617188 12.113281 C 90.691406 12.113281 12.117188 90.6875 12.117188 187.613281 " clip-rule="nonzero"/></clipPath><linearGradient x1="133.903" gradientTransform="matrix(1.487308, 0, 0, -1.487308, -11.535938, 383.936821)" y1="13.998007" x2="133.903" gradientUnits="userSpaceOnUse" y2="249.994471" id="id4"><stop stop-opacity="1" stop-color="rgb(11.399841%, 57.598877%, 82.398987%)" offset="0"/><stop stop-opacity="1" stop-color="rgb(11.564636%, 57.777405%, 82.501221%)" offset="0.03125"/><stop stop-opacity="1" stop-color="rgb(11.895752%, 58.132935%, 82.707214%)" offset="0.0625"/><stop stop-opacity="1" stop-color="rgb(12.226868%, 58.48999%, 82.914734%)" offset="0.09375"/><stop stop-opacity="1" stop-color="rgb(12.557983%, 58.84552%, 83.120728%)" offset="0.125"/><stop stop-opacity="1" stop-color="rgb(12.889099%, 59.202576%, 83.326721%)" offset="0.15625"/><stop stop-opacity="1" stop-color="rgb(13.220215%, 59.558105%, 83.532715%)" offset="0.1875"/><stop stop-opacity="1" stop-color="rgb(13.551331%, 59.913635%, 83.738708%)" offset="0.21875"/><stop stop-opacity="1" stop-color="rgb(13.882446%, 60.270691%, 83.944702%)" offset="0.25"/><stop stop-opacity="1" stop-color="rgb(14.213562%, 60.626221%, 84.152222%)" offset="0.28125"/><stop stop-opacity="1" stop-color="rgb(14.544678%, 60.983276%, 84.358215%)" offset="0.3125"/><stop stop-opacity="1" stop-color="rgb(14.877319%, 61.338806%, 84.564209%)" offset="0.34375"/><stop stop-opacity="1" stop-color="rgb(15.208435%, 61.695862%, 84.770203%)" offset="0.375"/><stop stop-opacity="1" stop-color="rgb(15.539551%, 62.051392%, 84.976196%)" offset="0.40625"/><stop stop-opacity="1" stop-color="rgb(15.870667%, 62.408447%, 85.18219%)" offset="0.4375"/><stop stop-opacity="1" stop-color="rgb(16.201782%, 62.763977%, 85.389709%)" offset="0.46875"/><stop stop-opacity="1" stop-color="rgb(16.532898%, 63.121033%, 85.595703%)" offset="0.5"/><stop stop-opacity="1" stop-color="rgb(16.864014%, 63.476562%, 85.801697%)" offset="0.53125"/><stop stop-opacity="1" stop-color="rgb(17.195129%, 63.833618%, 86.00769%)" offset="0.5625"/><stop stop-opacity="1" stop-color="rgb(17.526245%, 64.189148%, 86.213684%)" offset="0.59375"/><stop stop-opacity="1" stop-color="rgb(17.857361%, 64.546204%, 86.419678%)" offset="0.625"/><stop stop-opacity="1" stop-color="rgb(18.188477%, 64.901733%, 86.627197%)" offset="0.65625"/><stop stop-opacity="1" stop-color="rgb(18.519592%, 65.258789%, 86.833191%)" offset="0.6875"/><stop stop-opacity="1" stop-color="rgb(18.852234%, 65.614319%, 87.039185%)" offset="0.71875"/><stop stop-opacity="1" stop-color="rgb(19.18335%, 65.969849%, 87.245178%)" offset="0.75"/><stop stop-opacity="1" stop-color="rgb(19.514465%, 66.326904%, 87.451172%)" offset="0.78125"/><stop stop-opacity="1" stop-color="rgb(19.845581%, 66.682434%, 87.657166%)" offset="0.8125"/><stop stop-opacity="1" stop-color="rgb(20.176697%, 67.03949%, 87.864685%)" offset="0.84375"/><stop stop-opacity="1" stop-color="rgb(20.507812%, 67.39502%, 88.070679%)" offset="0.875"/><stop stop-opacity="1" stop-color="rgb(20.838928%, 67.752075%, 88.276672%)" offset="0.90625"/><stop stop-opacity="1" stop-color="rgb(21.170044%, 68.107605%, 88.482666%)" offset="0.9375"/><stop stop-opacity="1" stop-color="rgb(21.50116%, 68.464661%, 88.68866%)" offset="0.96875"/><stop stop-opacity="1" stop-color="rgb(21.832275%, 68.82019%, 88.894653%)" offset="1"/></linearGradient></defs><g clip-path="url(#id1)"><g clip-path="url(#id2)"><g clip-path="url(#id3)"><path fill="url(#id4)" d="M 12.117188 363.117188 L 12.117188 12.117188 L 363.117188 12.117188 L 363.117188 363.117188 Z M 12.117188 363.117188 " fill-rule="nonzero"/></g></g></g><path fill="#c8daea" d="M 130.914062 200.441406 L 151.738281 258.074219 C 151.738281 258.074219 154.339844 263.464844 157.128906 263.464844 C 159.917969 263.464844 201.375 220.332031 201.375 220.332031 L 247.484375 131.28125 L 131.660156 185.566406 Z M 130.914062 200.441406 " fill-opacity="1" fill-rule="nonzero"/><path fill="#a9c6d8" d="M 158.523438 215.222656 L 154.523438 257.703125 C 154.523438 257.703125 152.851562 270.71875 165.867188 257.703125 C 178.878906 244.6875 191.335938 234.648438 191.335938 234.648438 " fill-opacity="1" fill-rule="nonzero"/><path fill="#ffffff" d="M 131.289062 202.5 L 88.464844 188.542969 C 88.464844 188.542969 83.351562 186.46875 84.992188 181.757812 C 85.332031 180.789062 86.015625 179.964844 88.058594 178.535156 C 97.550781 171.921875 263.71875 112.195312 263.71875 112.195312 C 263.71875 112.195312 268.410156 110.617188 271.183594 111.667969 C 272.449219 112.148438 273.257812 112.691406 273.941406 114.671875 C 274.1875 115.394531 274.332031 116.925781 274.3125 118.453125 C 274.296875 119.554688 274.164062 120.570312 274.066406 122.171875 C 273.054688 138.5 242.773438 260.367188 242.773438 260.367188 C 242.773438 260.367188 240.960938 267.5 234.46875 267.742188 C 232.101562 267.832031 229.226562 267.351562 225.792969 264.394531 C 213.054688 253.4375 169.019531 223.84375 159.289062 217.335938 C 158.738281 216.972656 158.585938 216.496094 158.492188 216.027344 C 158.355469 215.34375 159.085938 214.492188 159.085938 214.492188 C 159.085938 214.492188 235.761719 146.335938 237.800781 139.183594 C 237.957031 138.628906 237.363281 138.355469 236.558594 138.59375 C 231.46875 140.46875 143.1875 196.214844 133.445312 202.371094 C 132.875 202.730469 131.277344 202.5 131.277344 202.5 " fill-opacity="1" fill-rule="nonzero"/></svg>